# xmcd
#
# Track frame offsets:
#	150
#	14961
#	27417
#	45345
#	55091
#	71320
#	84803
#	99978
#	114411
#	125727
#	140079
#	154224
#	168770
#	182778
#
# Disc length: 2652 seconds
#
# Revision: 0
# Processed by: cddbd v1.5.1PL0 Copyright (c) Steve Scherf et al.
# Submitted via: EasyCDDAExtractor 8.0.1.1
#
DISCID=b50a5a0e
DTITLE=Beatniks - Cross Country
DYEAR=1999
DGENRE=Country
TTITLE0=Now That's Country
TTITLE1=I'Ve Got My Baby On My Mind
TTITLE2=What Kind Of Love
TTITLE3=Hot Dog
TTITLE4=How I Regret
TTITLE5=Night Without End
TTITLE6=I'm Just A Menory
TTITLE7=It's Only Me
TTITLE8=As Long As I'm With You
TTITLE9=Childhood Summerdays
TTITLE10=Send Back My Heart
TTITLE11=What's The Marrer
TTITLE12=Don't Let Go
TTITLE13=When I Go To Heaven
EXTD=
EXTT0=
EXTT1=
EXTT2=
EXTT3=
EXTT4=
EXTT5=
EXTT6=
EXTT7=
EXTT8=
EXTT9=
EXTT10=
EXTT11=
EXTT12=
EXTT13=
PLAYORDER=
